<svg xmlns="http://www.w3.org/2000/svg" viewBox="0 0 720 180" role="img" aria-labelledby="title desc">
  <title id="title">treno logo</title>
  <desc id="desc">The treno wordmark paired with a rounded m symbol above a plate arc.</desc>
  <defs>
    <linearGradient id="bg" x1="14%" y1="10%" x2="86%" y2="90%">
      <stop offset="0%" stop-color="#2a2427"/>
      <stop offset="100%" stop-color="#1a1719"/>
    </linearGradient>
    <linearGradient id="accent" x1="14%" y1="20%" x2="86%" y2="80%">
      <stop offset="0%" stop-color="#e63946"/>
      <stop offset="100%" stop-color="#f05661"/>
    </linearGradient>
  </defs>
  <rect x="18" y="24" width="132" height="132" rx="40" fill="url(#bg)"/>
  <rect x="18.75" y="24.75" width="130.5" height="130.5" rx="39.25" fill="none" stroke="rgba(230,57,70,0.22)"/>
  <path d="M50 112V81C50 71.059 58.059 63 68 63C77.941 63 86 71.059 86 81V112" fill="none" stroke="#f5f1ea" stroke-width="10" stroke-linecap="round" stroke-linejoin="round"/>
  <path d="M86 112V84C86 72.402 95.402 63 107 63C118.598 63 128 72.402 128 84V112" fill="none" stroke="#f5f1ea" stroke-width="10" stroke-linecap="round" stroke-linejoin="round"/>
  <path d="M55 118C64 126 109 126 118 118" fill="none" stroke="url(#accent)" stroke-width="9" stroke-linecap="round"/>
  <circle cx="115" cy="58" r="7" fill="url(#accent)"/>
  <text x="182" y="92" fill="#f5f1ea" font-family="'Bricolage Grotesque', 'Avenir Next', 'Segoe UI', sans-serif" font-size="56" font-weight="800" letter-spacing="-2.6">treno</text>
  <text x="184" y="122" fill="#8a847d" font-family="'Mulish', 'Avenir Next', 'Segoe UI', sans-serif" font-size="16" font-weight="700" letter-spacing="2.4">FEEL YOUR MOMENTUM</text>
</svg>
